<mxfile host="app.diagrams.net" modified="2024-06-04T17:43:31.256Z" agent="Mozilla/5.0 (Windows NT 10.0; Win64; x64) AppleWebKit/537.36 (KHTML, like Gecko) Chrome/125.0.0.0 Safari/537.36 Edg/125.0.0.0" etag="qX7Pdgo02qVbchgR3T6K" version="24.4.13" type="device">
  <diagram name="Page-1" id="BZ-p9tmqTAIbnMLlTcCO">
    <mxGraphModel dx="2195" dy="1089" grid="0" gridSize="10" guides="1" tooltips="1" connect="1" arrows="1" fold="1" page="0" pageScale="1" pageWidth="827" pageHeight="1169" math="0" shadow="0">
      <root>
        <mxCell id="0" />
        <mxCell id="1" parent="0" />
        <mxCell id="Xwk9gsdMMxxRSrjiqG19-4" value="Student Name&lt;div&gt;[arabic]&lt;/div&gt;" style="ellipse;whiteSpace=wrap;html=1;" parent="1" vertex="1">
          <mxGeometry x="-11" y="-4" width="91" height="46" as="geometry" />
        </mxCell>
        <mxCell id="Xwk9gsdMMxxRSrjiqG19-5" value="Student" style="rounded=0;whiteSpace=wrap;html=1;" parent="1" vertex="1">
          <mxGeometry x="-160" y="96" width="120" height="60" as="geometry" />
        </mxCell>
        <mxCell id="Xwk9gsdMMxxRSrjiqG19-6" value="Third" style="ellipse;whiteSpace=wrap;html=1;" parent="1" vertex="1">
          <mxGeometry x="-75" y="-76" width="68" height="42" as="geometry" />
        </mxCell>
        <mxCell id="Xwk9gsdMMxxRSrjiqG19-7" value="First" style="ellipse;whiteSpace=wrap;html=1;" parent="1" vertex="1">
          <mxGeometry x="74" y="-76" width="68" height="42" as="geometry" />
        </mxCell>
        <mxCell id="Xwk9gsdMMxxRSrjiqG19-8" value="Second" style="ellipse;whiteSpace=wrap;html=1;" parent="1" vertex="1">
          <mxGeometry x="-1" y="-76" width="68" height="42" as="geometry" />
        </mxCell>
        <mxCell id="Xwk9gsdMMxxRSrjiqG19-12" value="" style="endArrow=none;html=1;rounded=0;entryX=0.5;entryY=1;entryDx=0;entryDy=0;exitX=0.5;exitY=0;exitDx=0;exitDy=0;" parent="1" source="Xwk9gsdMMxxRSrjiqG19-4" target="Xwk9gsdMMxxRSrjiqG19-8" edge="1">
          <mxGeometry width="50" height="50" relative="1" as="geometry">
            <mxPoint x="290.5" y="197" as="sourcePoint" />
            <mxPoint x="340.5" y="147" as="targetPoint" />
          </mxGeometry>
        </mxCell>
        <mxCell id="Xwk9gsdMMxxRSrjiqG19-13" value="" style="endArrow=none;html=1;rounded=0;entryX=0.5;entryY=1;entryDx=0;entryDy=0;exitX=0.5;exitY=0;exitDx=0;exitDy=0;" parent="1" source="Xwk9gsdMMxxRSrjiqG19-4" target="Xwk9gsdMMxxRSrjiqG19-6" edge="1">
          <mxGeometry width="50" height="50" relative="1" as="geometry">
            <mxPoint x="300.5" y="207" as="sourcePoint" />
            <mxPoint x="350.5" y="157" as="targetPoint" />
          </mxGeometry>
        </mxCell>
        <mxCell id="Xwk9gsdMMxxRSrjiqG19-14" value="" style="endArrow=none;html=1;rounded=0;exitX=0.5;exitY=1;exitDx=0;exitDy=0;entryX=0.5;entryY=0;entryDx=0;entryDy=0;" parent="1" source="Xwk9gsdMMxxRSrjiqG19-7" target="Xwk9gsdMMxxRSrjiqG19-4" edge="1">
          <mxGeometry width="50" height="50" relative="1" as="geometry">
            <mxPoint x="310.5" y="217" as="sourcePoint" />
            <mxPoint x="360.5" y="167" as="targetPoint" />
          </mxGeometry>
        </mxCell>
        <mxCell id="Xwk9gsdMMxxRSrjiqG19-15" value="" style="endArrow=none;html=1;rounded=0;exitX=0.5;exitY=0;exitDx=0;exitDy=0;" parent="1" source="Xwk9gsdMMxxRSrjiqG19-5" target="Xwk9gsdMMxxRSrjiqG19-4" edge="1">
          <mxGeometry width="50" height="50" relative="1" as="geometry">
            <mxPoint x="203" y="227" as="sourcePoint" />
            <mxPoint x="253" y="177" as="targetPoint" />
          </mxGeometry>
        </mxCell>
        <mxCell id="Xwk9gsdMMxxRSrjiqG19-20" value="Born Date" style="ellipse;whiteSpace=wrap;html=1;" parent="1" vertex="1">
          <mxGeometry x="-107" y="-4" width="91" height="46" as="geometry" />
        </mxCell>
        <mxCell id="Xwk9gsdMMxxRSrjiqG19-21" value="Place Birth" style="ellipse;whiteSpace=wrap;html=1;" parent="1" vertex="1">
          <mxGeometry x="-205" y="-4" width="91" height="46" as="geometry" />
        </mxCell>
        <mxCell id="Xwk9gsdMMxxRSrjiqG19-22" value="Address" style="ellipse;whiteSpace=wrap;html=1;" parent="1" vertex="1">
          <mxGeometry x="84.5" y="-4" width="91" height="46" as="geometry" />
        </mxCell>
        <mxCell id="Xwk9gsdMMxxRSrjiqG19-23" value="Phone Number" style="ellipse;whiteSpace=wrap;html=1;" parent="1" vertex="1">
          <mxGeometry x="179.5" y="-4" width="91" height="46" as="geometry" />
        </mxCell>
        <mxCell id="Xwk9gsdMMxxRSrjiqG19-24" value="Gender" style="ellipse;whiteSpace=wrap;html=1;" parent="1" vertex="1">
          <mxGeometry x="274.5" y="-4" width="91" height="46" as="geometry" />
        </mxCell>
        <mxCell id="Xwk9gsdMMxxRSrjiqG19-25" value="Picture" style="ellipse;whiteSpace=wrap;html=1;" parent="1" vertex="1">
          <mxGeometry x="-492" y="-4" width="91" height="46" as="geometry" />
        </mxCell>
        <mxCell id="Xwk9gsdMMxxRSrjiqG19-26" value="Parent" style="ellipse;whiteSpace=wrap;html=1;" parent="1" vertex="1">
          <mxGeometry x="-397" y="-4" width="91" height="46" as="geometry" />
        </mxCell>
        <mxCell id="Xwk9gsdMMxxRSrjiqG19-27" value="Third" style="ellipse;whiteSpace=wrap;html=1;" parent="1" vertex="1">
          <mxGeometry x="-367" y="-79" width="68" height="42" as="geometry" />
        </mxCell>
        <mxCell id="Xwk9gsdMMxxRSrjiqG19-28" value="First" style="ellipse;whiteSpace=wrap;html=1;" parent="1" vertex="1">
          <mxGeometry x="-218" y="-79" width="68" height="42" as="geometry" />
        </mxCell>
        <mxCell id="Xwk9gsdMMxxRSrjiqG19-29" value="Second" style="ellipse;whiteSpace=wrap;html=1;" parent="1" vertex="1">
          <mxGeometry x="-292" y="-79" width="68" height="42" as="geometry" />
        </mxCell>
        <mxCell id="Xwk9gsdMMxxRSrjiqG19-30" value="Student Name&lt;div&gt;[english]&lt;/div&gt;" style="ellipse;whiteSpace=wrap;html=1;" parent="1" vertex="1">
          <mxGeometry x="-302" y="-4" width="91" height="46" as="geometry" />
        </mxCell>
        <mxCell id="Xwk9gsdMMxxRSrjiqG19-31" value="" style="endArrow=none;html=1;rounded=0;entryX=0.5;entryY=1;entryDx=0;entryDy=0;exitX=0.561;exitY=-0.008;exitDx=0;exitDy=0;exitPerimeter=0;" parent="1" source="Xwk9gsdMMxxRSrjiqG19-5" target="Xwk9gsdMMxxRSrjiqG19-23" edge="1">
          <mxGeometry width="50" height="50" relative="1" as="geometry">
            <mxPoint x="6" y="197" as="sourcePoint" />
            <mxPoint x="56" y="147" as="targetPoint" />
          </mxGeometry>
        </mxCell>
        <mxCell id="Xwk9gsdMMxxRSrjiqG19-32" value="" style="endArrow=none;html=1;rounded=0;entryX=0.5;entryY=1;entryDx=0;entryDy=0;exitX=0.544;exitY=-0.008;exitDx=0;exitDy=0;exitPerimeter=0;" parent="1" source="Xwk9gsdMMxxRSrjiqG19-5" target="Xwk9gsdMMxxRSrjiqG19-24" edge="1">
          <mxGeometry width="50" height="50" relative="1" as="geometry">
            <mxPoint x="16" y="207" as="sourcePoint" />
            <mxPoint x="66" y="157" as="targetPoint" />
          </mxGeometry>
        </mxCell>
        <mxCell id="Xwk9gsdMMxxRSrjiqG19-33" value="" style="endArrow=none;html=1;rounded=0;entryX=0.5;entryY=1;entryDx=0;entryDy=0;exitX=0.5;exitY=0;exitDx=0;exitDy=0;" parent="1" source="Xwk9gsdMMxxRSrjiqG19-5" target="Xwk9gsdMMxxRSrjiqG19-20" edge="1">
          <mxGeometry width="50" height="50" relative="1" as="geometry">
            <mxPoint x="26" y="217" as="sourcePoint" />
            <mxPoint x="76" y="167" as="targetPoint" />
          </mxGeometry>
        </mxCell>
        <mxCell id="Xwk9gsdMMxxRSrjiqG19-34" value="" style="endArrow=none;html=1;rounded=0;entryX=0.5;entryY=1;entryDx=0;entryDy=0;exitX=0.5;exitY=0;exitDx=0;exitDy=0;" parent="1" source="Xwk9gsdMMxxRSrjiqG19-5" target="Xwk9gsdMMxxRSrjiqG19-21" edge="1">
          <mxGeometry width="50" height="50" relative="1" as="geometry">
            <mxPoint x="36" y="227" as="sourcePoint" />
            <mxPoint x="86" y="177" as="targetPoint" />
          </mxGeometry>
        </mxCell>
        <mxCell id="Xwk9gsdMMxxRSrjiqG19-35" value="" style="endArrow=none;html=1;rounded=0;entryX=0.5;entryY=1;entryDx=0;entryDy=0;exitX=0.5;exitY=0;exitDx=0;exitDy=0;" parent="1" source="Xwk9gsdMMxxRSrjiqG19-5" target="Xwk9gsdMMxxRSrjiqG19-30" edge="1">
          <mxGeometry width="50" height="50" relative="1" as="geometry">
            <mxPoint x="-144" y="83" as="sourcePoint" />
            <mxPoint x="96" y="187" as="targetPoint" />
          </mxGeometry>
        </mxCell>
        <mxCell id="Xwk9gsdMMxxRSrjiqG19-36" value="" style="endArrow=none;html=1;rounded=0;entryX=0.5;entryY=1;entryDx=0;entryDy=0;exitX=0.5;exitY=0;exitDx=0;exitDy=0;" parent="1" source="Xwk9gsdMMxxRSrjiqG19-5" target="Xwk9gsdMMxxRSrjiqG19-26" edge="1">
          <mxGeometry width="50" height="50" relative="1" as="geometry">
            <mxPoint x="56" y="247" as="sourcePoint" />
            <mxPoint x="106" y="197" as="targetPoint" />
          </mxGeometry>
        </mxCell>
        <mxCell id="Xwk9gsdMMxxRSrjiqG19-37" value="" style="endArrow=none;html=1;rounded=0;entryX=0.5;entryY=1;entryDx=0;entryDy=0;exitX=0.5;exitY=0;exitDx=0;exitDy=0;" parent="1" source="Xwk9gsdMMxxRSrjiqG19-5" target="Xwk9gsdMMxxRSrjiqG19-25" edge="1">
          <mxGeometry width="50" height="50" relative="1" as="geometry">
            <mxPoint x="-95" y="68" as="sourcePoint" />
            <mxPoint x="116" y="207" as="targetPoint" />
          </mxGeometry>
        </mxCell>
        <mxCell id="Xwk9gsdMMxxRSrjiqG19-38" value="" style="endArrow=none;html=1;rounded=0;entryX=0.5;entryY=1;entryDx=0;entryDy=0;" parent="1" source="Xwk9gsdMMxxRSrjiqG19-30" target="Xwk9gsdMMxxRSrjiqG19-29" edge="1">
          <mxGeometry width="50" height="50" relative="1" as="geometry">
            <mxPoint x="76" y="267" as="sourcePoint" />
            <mxPoint x="126" y="217" as="targetPoint" />
          </mxGeometry>
        </mxCell>
        <mxCell id="Xwk9gsdMMxxRSrjiqG19-39" value="" style="endArrow=none;html=1;rounded=0;entryX=0.5;entryY=1;entryDx=0;entryDy=0;exitX=0.5;exitY=0;exitDx=0;exitDy=0;" parent="1" source="Xwk9gsdMMxxRSrjiqG19-30" target="Xwk9gsdMMxxRSrjiqG19-28" edge="1">
          <mxGeometry width="50" height="50" relative="1" as="geometry">
            <mxPoint x="86" y="277" as="sourcePoint" />
            <mxPoint x="136" y="227" as="targetPoint" />
          </mxGeometry>
        </mxCell>
        <mxCell id="Xwk9gsdMMxxRSrjiqG19-40" value="" style="endArrow=none;html=1;rounded=0;entryX=0.5;entryY=1;entryDx=0;entryDy=0;exitX=0.5;exitY=0;exitDx=0;exitDy=0;" parent="1" source="Xwk9gsdMMxxRSrjiqG19-30" target="Xwk9gsdMMxxRSrjiqG19-27" edge="1">
          <mxGeometry width="50" height="50" relative="1" as="geometry">
            <mxPoint x="96" y="287" as="sourcePoint" />
            <mxPoint x="146" y="237" as="targetPoint" />
          </mxGeometry>
        </mxCell>
        <mxCell id="Xwk9gsdMMxxRSrjiqG19-42" value="" style="endArrow=none;html=1;rounded=0;exitX=0.55;exitY=0.015;exitDx=0;exitDy=0;exitPerimeter=0;entryX=0.5;entryY=1;entryDx=0;entryDy=0;" parent="1" source="Xwk9gsdMMxxRSrjiqG19-5" target="Xwk9gsdMMxxRSrjiqG19-22" edge="1">
          <mxGeometry width="50" height="50" relative="1" as="geometry">
            <mxPoint x="116" y="307" as="sourcePoint" />
            <mxPoint x="166" y="257" as="targetPoint" />
          </mxGeometry>
        </mxCell>
        <mxCell id="Xwk9gsdMMxxRSrjiqG19-43" value="Teacher" style="rounded=0;whiteSpace=wrap;html=1;" parent="1" vertex="1">
          <mxGeometry x="-215" y="369" width="120" height="60" as="geometry" />
        </mxCell>
        <mxCell id="Xwk9gsdMMxxRSrjiqG19-44" value="Student Name&lt;div&gt;[arabic]&lt;/div&gt;" style="ellipse;whiteSpace=wrap;html=1;" parent="1" vertex="1">
          <mxGeometry x="-9" y="532" width="91" height="46" as="geometry" />
        </mxCell>
        <mxCell id="Xwk9gsdMMxxRSrjiqG19-45" value="Third" style="ellipse;whiteSpace=wrap;html=1;" parent="1" vertex="1">
          <mxGeometry x="-77" y="632" width="68" height="42" as="geometry" />
        </mxCell>
        <mxCell id="Xwk9gsdMMxxRSrjiqG19-46" value="First" style="ellipse;whiteSpace=wrap;html=1;" parent="1" vertex="1">
          <mxGeometry x="72" y="632" width="68" height="42" as="geometry" />
        </mxCell>
        <mxCell id="Xwk9gsdMMxxRSrjiqG19-47" value="Second" style="ellipse;whiteSpace=wrap;html=1;" parent="1" vertex="1">
          <mxGeometry x="-3" y="632" width="68" height="42" as="geometry" />
        </mxCell>
        <mxCell id="Xwk9gsdMMxxRSrjiqG19-48" value="" style="endArrow=none;html=1;rounded=0;entryX=0.596;entryY=-0.046;entryDx=0;entryDy=0;exitX=0.5;exitY=1;exitDx=0;exitDy=0;entryPerimeter=0;" parent="1" source="Xwk9gsdMMxxRSrjiqG19-44" target="Xwk9gsdMMxxRSrjiqG19-47" edge="1">
          <mxGeometry width="50" height="50" relative="1" as="geometry">
            <mxPoint x="29" y="584" as="sourcePoint" />
            <mxPoint x="337.5" y="689" as="targetPoint" />
          </mxGeometry>
        </mxCell>
        <mxCell id="Xwk9gsdMMxxRSrjiqG19-49" value="" style="endArrow=none;html=1;rounded=0;entryX=0.5;entryY=0;entryDx=0;entryDy=0;exitX=0.5;exitY=1;exitDx=0;exitDy=0;" parent="1" source="Xwk9gsdMMxxRSrjiqG19-44" target="Xwk9gsdMMxxRSrjiqG19-45" edge="1">
          <mxGeometry width="50" height="50" relative="1" as="geometry">
            <mxPoint x="297.5" y="749" as="sourcePoint" />
            <mxPoint x="347.5" y="699" as="targetPoint" />
          </mxGeometry>
        </mxCell>
        <mxCell id="Xwk9gsdMMxxRSrjiqG19-50" value="" style="endArrow=none;html=1;rounded=0;exitX=0.5;exitY=0;exitDx=0;exitDy=0;entryX=0.5;entryY=1;entryDx=0;entryDy=0;" parent="1" source="Xwk9gsdMMxxRSrjiqG19-46" target="Xwk9gsdMMxxRSrjiqG19-44" edge="1">
          <mxGeometry width="50" height="50" relative="1" as="geometry">
            <mxPoint x="307.5" y="759" as="sourcePoint" />
            <mxPoint x="357.5" y="709" as="targetPoint" />
          </mxGeometry>
        </mxCell>
        <mxCell id="Xwk9gsdMMxxRSrjiqG19-51" value="" style="endArrow=none;html=1;rounded=0;exitX=0.5;exitY=0;exitDx=0;exitDy=0;entryX=0.5;entryY=1;entryDx=0;entryDy=0;" parent="1" source="Xwk9gsdMMxxRSrjiqG19-44" target="Xwk9gsdMMxxRSrjiqG19-43" edge="1">
          <mxGeometry width="50" height="50" relative="1" as="geometry">
            <mxPoint x="6" y="519" as="sourcePoint" />
            <mxPoint x="56" y="469" as="targetPoint" />
          </mxGeometry>
        </mxCell>
        <mxCell id="Xwk9gsdMMxxRSrjiqG19-52" value="Student Name&lt;div&gt;[english]&lt;/div&gt;" style="ellipse;whiteSpace=wrap;html=1;" parent="1" vertex="1">
          <mxGeometry x="-297" y="532" width="91" height="46" as="geometry" />
        </mxCell>
        <mxCell id="Xwk9gsdMMxxRSrjiqG19-53" value="Third" style="ellipse;whiteSpace=wrap;html=1;" parent="1" vertex="1">
          <mxGeometry x="-365" y="632" width="68" height="42" as="geometry" />
        </mxCell>
        <mxCell id="Xwk9gsdMMxxRSrjiqG19-54" value="First" style="ellipse;whiteSpace=wrap;html=1;" parent="1" vertex="1">
          <mxGeometry x="-216" y="632" width="68" height="42" as="geometry" />
        </mxCell>
        <mxCell id="Xwk9gsdMMxxRSrjiqG19-55" value="Second" style="ellipse;whiteSpace=wrap;html=1;" parent="1" vertex="1">
          <mxGeometry x="-291" y="632" width="68" height="42" as="geometry" />
        </mxCell>
        <mxCell id="Xwk9gsdMMxxRSrjiqG19-56" value="" style="endArrow=none;html=1;rounded=0;entryX=0.596;entryY=-0.046;entryDx=0;entryDy=0;exitX=0.5;exitY=1;exitDx=0;exitDy=0;entryPerimeter=0;" parent="1" source="Xwk9gsdMMxxRSrjiqG19-52" target="Xwk9gsdMMxxRSrjiqG19-55" edge="1">
          <mxGeometry width="50" height="50" relative="1" as="geometry">
            <mxPoint x="-259" y="584" as="sourcePoint" />
            <mxPoint x="49.5" y="689" as="targetPoint" />
          </mxGeometry>
        </mxCell>
        <mxCell id="Xwk9gsdMMxxRSrjiqG19-57" value="" style="endArrow=none;html=1;rounded=0;entryX=0.5;entryY=0;entryDx=0;entryDy=0;exitX=0.5;exitY=1;exitDx=0;exitDy=0;" parent="1" source="Xwk9gsdMMxxRSrjiqG19-52" target="Xwk9gsdMMxxRSrjiqG19-53" edge="1">
          <mxGeometry width="50" height="50" relative="1" as="geometry">
            <mxPoint x="9.5" y="749" as="sourcePoint" />
            <mxPoint x="59.5" y="699" as="targetPoint" />
          </mxGeometry>
        </mxCell>
        <mxCell id="Xwk9gsdMMxxRSrjiqG19-58" value="" style="endArrow=none;html=1;rounded=0;exitX=0.5;exitY=0;exitDx=0;exitDy=0;entryX=0.5;entryY=1;entryDx=0;entryDy=0;" parent="1" source="Xwk9gsdMMxxRSrjiqG19-54" target="Xwk9gsdMMxxRSrjiqG19-52" edge="1">
          <mxGeometry width="50" height="50" relative="1" as="geometry">
            <mxPoint x="19.5" y="759" as="sourcePoint" />
            <mxPoint x="69.5" y="709" as="targetPoint" />
          </mxGeometry>
        </mxCell>
        <mxCell id="Xwk9gsdMMxxRSrjiqG19-59" value="" style="endArrow=none;html=1;rounded=0;entryX=0.5;entryY=1;entryDx=0;entryDy=0;exitX=0.5;exitY=0;exitDx=0;exitDy=0;" parent="1" source="Xwk9gsdMMxxRSrjiqG19-52" target="Xwk9gsdMMxxRSrjiqG19-43" edge="1">
          <mxGeometry width="50" height="50" relative="1" as="geometry">
            <mxPoint x="6" y="646" as="sourcePoint" />
            <mxPoint x="56" y="596" as="targetPoint" />
          </mxGeometry>
        </mxCell>
        <mxCell id="Xwk9gsdMMxxRSrjiqG19-60" value="Born Date" style="ellipse;whiteSpace=wrap;html=1;" parent="1" vertex="1">
          <mxGeometry x="-106" y="532" width="91" height="46" as="geometry" />
        </mxCell>
        <mxCell id="Xwk9gsdMMxxRSrjiqG19-61" value="Place Birth" style="ellipse;whiteSpace=wrap;html=1;" parent="1" vertex="1">
          <mxGeometry x="-201.5" y="532" width="91" height="46" as="geometry" />
        </mxCell>
        <mxCell id="Xwk9gsdMMxxRSrjiqG19-62" value="Address" style="ellipse;whiteSpace=wrap;html=1;" parent="1" vertex="1">
          <mxGeometry x="88" y="532" width="91" height="46" as="geometry" />
        </mxCell>
        <mxCell id="Xwk9gsdMMxxRSrjiqG19-63" value="Phone Number" style="ellipse;whiteSpace=wrap;html=1;" parent="1" vertex="1">
          <mxGeometry x="185" y="532" width="91" height="46" as="geometry" />
        </mxCell>
        <mxCell id="Xwk9gsdMMxxRSrjiqG19-64" value="Gender" style="ellipse;whiteSpace=wrap;html=1;" parent="1" vertex="1">
          <mxGeometry x="-392" y="532" width="91" height="46" as="geometry" />
        </mxCell>
        <mxCell id="Xwk9gsdMMxxRSrjiqG19-65" value="Picture" style="ellipse;whiteSpace=wrap;html=1;" parent="1" vertex="1">
          <mxGeometry x="-487" y="532" width="91" height="46" as="geometry" />
        </mxCell>
        <mxCell id="Xwk9gsdMMxxRSrjiqG19-66" value="" style="endArrow=none;html=1;rounded=0;entryX=0.5;entryY=0;entryDx=0;entryDy=0;exitX=0.5;exitY=1;exitDx=0;exitDy=0;" parent="1" source="Xwk9gsdMMxxRSrjiqG19-43" target="Xwk9gsdMMxxRSrjiqG19-65" edge="1">
          <mxGeometry width="50" height="50" relative="1" as="geometry">
            <mxPoint x="6" y="456" as="sourcePoint" />
            <mxPoint x="56" y="406" as="targetPoint" />
          </mxGeometry>
        </mxCell>
        <mxCell id="Xwk9gsdMMxxRSrjiqG19-67" value="" style="endArrow=none;html=1;rounded=0;exitX=0.5;exitY=1;exitDx=0;exitDy=0;entryX=0.5;entryY=0;entryDx=0;entryDy=0;" parent="1" source="Xwk9gsdMMxxRSrjiqG19-43" target="Xwk9gsdMMxxRSrjiqG19-63" edge="1">
          <mxGeometry width="50" height="50" relative="1" as="geometry">
            <mxPoint x="16" y="466" as="sourcePoint" />
            <mxPoint x="66" y="416" as="targetPoint" />
          </mxGeometry>
        </mxCell>
        <mxCell id="Xwk9gsdMMxxRSrjiqG19-68" value="" style="endArrow=none;html=1;rounded=0;entryX=0.5;entryY=1;entryDx=0;entryDy=0;exitX=0.5;exitY=0;exitDx=0;exitDy=0;" parent="1" source="Xwk9gsdMMxxRSrjiqG19-62" target="Xwk9gsdMMxxRSrjiqG19-43" edge="1">
          <mxGeometry width="50" height="50" relative="1" as="geometry">
            <mxPoint x="26" y="476" as="sourcePoint" />
            <mxPoint x="76" y="426" as="targetPoint" />
          </mxGeometry>
        </mxCell>
        <mxCell id="Xwk9gsdMMxxRSrjiqG19-69" value="" style="endArrow=none;html=1;rounded=0;entryX=0.5;entryY=1;entryDx=0;entryDy=0;exitX=0.5;exitY=0;exitDx=0;exitDy=0;" parent="1" source="Xwk9gsdMMxxRSrjiqG19-61" target="Xwk9gsdMMxxRSrjiqG19-43" edge="1">
          <mxGeometry width="50" height="50" relative="1" as="geometry">
            <mxPoint x="36" y="486" as="sourcePoint" />
            <mxPoint x="86" y="436" as="targetPoint" />
          </mxGeometry>
        </mxCell>
        <mxCell id="Xwk9gsdMMxxRSrjiqG19-70" value="" style="endArrow=none;html=1;rounded=0;exitX=0.5;exitY=0;exitDx=0;exitDy=0;entryX=0.5;entryY=1;entryDx=0;entryDy=0;" parent="1" source="Xwk9gsdMMxxRSrjiqG19-60" target="Xwk9gsdMMxxRSrjiqG19-43" edge="1">
          <mxGeometry width="50" height="50" relative="1" as="geometry">
            <mxPoint x="46" y="496" as="sourcePoint" />
            <mxPoint x="96" y="446" as="targetPoint" />
          </mxGeometry>
        </mxCell>
        <mxCell id="Xwk9gsdMMxxRSrjiqG19-71" value="" style="endArrow=none;html=1;rounded=0;exitX=0.5;exitY=0;exitDx=0;exitDy=0;entryX=0.5;entryY=1;entryDx=0;entryDy=0;" parent="1" source="Xwk9gsdMMxxRSrjiqG19-64" target="Xwk9gsdMMxxRSrjiqG19-43" edge="1">
          <mxGeometry width="50" height="50" relative="1" as="geometry">
            <mxPoint x="56" y="506" as="sourcePoint" />
            <mxPoint x="106" y="456" as="targetPoint" />
          </mxGeometry>
        </mxCell>
        <mxCell id="Xwk9gsdMMxxRSrjiqG19-72" value="Course" style="rounded=0;whiteSpace=wrap;html=1;" parent="1" vertex="1">
          <mxGeometry x="576" y="369" width="120" height="60" as="geometry" />
        </mxCell>
        <mxCell id="Xwk9gsdMMxxRSrjiqG19-73" value="Describtion" style="ellipse;whiteSpace=wrap;html=1;" parent="1" vertex="1">
          <mxGeometry x="536" y="532" width="91" height="46" as="geometry" />
        </mxCell>
        <mxCell id="Xwk9gsdMMxxRSrjiqG19-74" value="Name" style="ellipse;whiteSpace=wrap;html=1;" parent="1" vertex="1">
          <mxGeometry x="438.5" y="532" width="91" height="46" as="geometry" />
        </mxCell>
        <mxCell id="Xwk9gsdMMxxRSrjiqG19-75" value="Number&amp;nbsp;" style="ellipse;whiteSpace=wrap;html=1;" parent="1" vertex="1">
          <mxGeometry x="341" y="532" width="91" height="46" as="geometry" />
        </mxCell>
        <mxCell id="Xwk9gsdMMxxRSrjiqG19-76" value="" style="endArrow=none;html=1;rounded=0;exitX=0.5;exitY=0;exitDx=0;exitDy=0;entryX=0.5;entryY=1;entryDx=0;entryDy=0;" parent="1" source="Xwk9gsdMMxxRSrjiqG19-73" target="Xwk9gsdMMxxRSrjiqG19-72" edge="1">
          <mxGeometry width="50" height="50" relative="1" as="geometry">
            <mxPoint x="352" y="516" as="sourcePoint" />
            <mxPoint x="402" y="466" as="targetPoint" />
          </mxGeometry>
        </mxCell>
        <mxCell id="Xwk9gsdMMxxRSrjiqG19-77" value="" style="endArrow=none;html=1;rounded=0;entryX=0.5;entryY=1;entryDx=0;entryDy=0;exitX=0.5;exitY=0;exitDx=0;exitDy=0;" parent="1" source="Xwk9gsdMMxxRSrjiqG19-75" target="Xwk9gsdMMxxRSrjiqG19-72" edge="1">
          <mxGeometry width="50" height="50" relative="1" as="geometry">
            <mxPoint x="362" y="526" as="sourcePoint" />
            <mxPoint x="412" y="476" as="targetPoint" />
          </mxGeometry>
        </mxCell>
        <mxCell id="Xwk9gsdMMxxRSrjiqG19-78" value="" style="endArrow=none;html=1;rounded=0;entryX=0.5;entryY=1;entryDx=0;entryDy=0;exitX=0.5;exitY=0;exitDx=0;exitDy=0;" parent="1" source="Xwk9gsdMMxxRSrjiqG19-74" target="Xwk9gsdMMxxRSrjiqG19-72" edge="1">
          <mxGeometry width="50" height="50" relative="1" as="geometry">
            <mxPoint x="372" y="536" as="sourcePoint" />
            <mxPoint x="422" y="486" as="targetPoint" />
          </mxGeometry>
        </mxCell>
        <mxCell id="Xwk9gsdMMxxRSrjiqG19-79" value="Book" style="rounded=0;whiteSpace=wrap;html=1;" parent="1" vertex="1">
          <mxGeometry x="1056" y="369" width="120" height="60" as="geometry" />
        </mxCell>
        <mxCell id="Xwk9gsdMMxxRSrjiqG19-80" value="Describtion" style="ellipse;whiteSpace=wrap;html=1;" parent="1" vertex="1">
          <mxGeometry x="1070.5" y="532" width="91" height="46" as="geometry" />
        </mxCell>
        <mxCell id="Xwk9gsdMMxxRSrjiqG19-81" value="Name" style="ellipse;whiteSpace=wrap;html=1;" parent="1" vertex="1">
          <mxGeometry x="973" y="532" width="91" height="46" as="geometry" />
        </mxCell>
        <mxCell id="Xwk9gsdMMxxRSrjiqG19-83" value="" style="endArrow=none;html=1;rounded=0;exitX=0.5;exitY=0;exitDx=0;exitDy=0;entryX=0.5;entryY=1;entryDx=0;entryDy=0;" parent="1" source="Xwk9gsdMMxxRSrjiqG19-80" target="Xwk9gsdMMxxRSrjiqG19-79" edge="1">
          <mxGeometry width="50" height="50" relative="1" as="geometry">
            <mxPoint x="984" y="516" as="sourcePoint" />
            <mxPoint x="1034" y="466" as="targetPoint" />
          </mxGeometry>
        </mxCell>
        <mxCell id="Xwk9gsdMMxxRSrjiqG19-85" value="" style="endArrow=none;html=1;rounded=0;entryX=0.5;entryY=1;entryDx=0;entryDy=0;exitX=0.5;exitY=0;exitDx=0;exitDy=0;" parent="1" source="Xwk9gsdMMxxRSrjiqG19-81" target="Xwk9gsdMMxxRSrjiqG19-79" edge="1">
          <mxGeometry width="50" height="50" relative="1" as="geometry">
            <mxPoint x="1004" y="536" as="sourcePoint" />
            <mxPoint x="1054" y="486" as="targetPoint" />
          </mxGeometry>
        </mxCell>
        <mxCell id="Xwk9gsdMMxxRSrjiqG19-86" value="Book_id" style="ellipse;whiteSpace=wrap;html=1;" parent="1" vertex="1">
          <mxGeometry x="633" y="532" width="91" height="46" as="geometry" />
        </mxCell>
        <mxCell id="Xwk9gsdMMxxRSrjiqG19-87" value="Price" style="ellipse;whiteSpace=wrap;html=1;" parent="1" vertex="1">
          <mxGeometry x="1169" y="532" width="91" height="46" as="geometry" />
        </mxCell>
        <mxCell id="Xwk9gsdMMxxRSrjiqG19-88" value="Price" style="ellipse;whiteSpace=wrap;html=1;" parent="1" vertex="1">
          <mxGeometry x="732" y="532" width="91" height="46" as="geometry" />
        </mxCell>
        <mxCell id="Xwk9gsdMMxxRSrjiqG19-89" value="" style="endArrow=none;html=1;rounded=0;entryX=0.5;entryY=1;entryDx=0;entryDy=0;exitX=0.5;exitY=0;exitDx=0;exitDy=0;" parent="1" source="Xwk9gsdMMxxRSrjiqG19-87" target="Xwk9gsdMMxxRSrjiqG19-79" edge="1">
          <mxGeometry width="50" height="50" relative="1" as="geometry">
            <mxPoint x="767" y="509" as="sourcePoint" />
            <mxPoint x="817" y="459" as="targetPoint" />
          </mxGeometry>
        </mxCell>
        <mxCell id="Xwk9gsdMMxxRSrjiqG19-90" value="" style="endArrow=none;html=1;rounded=0;entryX=0.5;entryY=0;entryDx=0;entryDy=0;exitX=0.5;exitY=1;exitDx=0;exitDy=0;" parent="1" source="Xwk9gsdMMxxRSrjiqG19-72" target="Xwk9gsdMMxxRSrjiqG19-88" edge="1">
          <mxGeometry width="50" height="50" relative="1" as="geometry">
            <mxPoint x="657" y="519" as="sourcePoint" />
            <mxPoint x="707" y="469" as="targetPoint" />
          </mxGeometry>
        </mxCell>
        <mxCell id="Xwk9gsdMMxxRSrjiqG19-91" value="" style="endArrow=none;html=1;rounded=0;entryX=0.5;entryY=1;entryDx=0;entryDy=0;exitX=0.5;exitY=0;exitDx=0;exitDy=0;" parent="1" source="Xwk9gsdMMxxRSrjiqG19-86" target="Xwk9gsdMMxxRSrjiqG19-72" edge="1">
          <mxGeometry width="50" height="50" relative="1" as="geometry">
            <mxPoint x="667" y="529" as="sourcePoint" />
            <mxPoint x="717" y="479" as="targetPoint" />
          </mxGeometry>
        </mxCell>
        <mxCell id="Xwk9gsdMMxxRSrjiqG19-92" value="Department" style="rounded=0;whiteSpace=wrap;html=1;" parent="1" vertex="1">
          <mxGeometry x="1331" y="369" width="120" height="60" as="geometry" />
        </mxCell>
        <mxCell id="Xwk9gsdMMxxRSrjiqG19-93" value="Describtion" style="ellipse;whiteSpace=wrap;html=1;" parent="1" vertex="1">
          <mxGeometry x="1399" y="532" width="91" height="46" as="geometry" />
        </mxCell>
        <mxCell id="Xwk9gsdMMxxRSrjiqG19-94" value="Name" style="ellipse;whiteSpace=wrap;html=1;" parent="1" vertex="1">
          <mxGeometry x="1298" y="532" width="91" height="46" as="geometry" />
        </mxCell>
        <mxCell id="Xwk9gsdMMxxRSrjiqG19-95" value="" style="endArrow=none;html=1;rounded=0;exitX=0.5;exitY=0;exitDx=0;exitDy=0;entryX=0.5;entryY=1;entryDx=0;entryDy=0;" parent="1" source="Xwk9gsdMMxxRSrjiqG19-93" target="Xwk9gsdMMxxRSrjiqG19-92" edge="1">
          <mxGeometry width="50" height="50" relative="1" as="geometry">
            <mxPoint x="1259" y="516" as="sourcePoint" />
            <mxPoint x="1309" y="466" as="targetPoint" />
          </mxGeometry>
        </mxCell>
        <mxCell id="Xwk9gsdMMxxRSrjiqG19-96" value="" style="endArrow=none;html=1;rounded=0;entryX=0.5;entryY=1;entryDx=0;entryDy=0;exitX=0.5;exitY=0;exitDx=0;exitDy=0;" parent="1" source="Xwk9gsdMMxxRSrjiqG19-94" target="Xwk9gsdMMxxRSrjiqG19-92" edge="1">
          <mxGeometry width="50" height="50" relative="1" as="geometry">
            <mxPoint x="1279" y="536" as="sourcePoint" />
            <mxPoint x="1329" y="486" as="targetPoint" />
          </mxGeometry>
        </mxCell>
        <mxCell id="Xwk9gsdMMxxRSrjiqG19-106" value="Department_id" style="ellipse;whiteSpace=wrap;html=1;" parent="1" vertex="1">
          <mxGeometry x="829" y="532" width="91" height="46" as="geometry" />
        </mxCell>
        <mxCell id="Xwk9gsdMMxxRSrjiqG19-107" value="" style="endArrow=none;html=1;rounded=0;exitX=0.5;exitY=1;exitDx=0;exitDy=0;entryX=0.5;entryY=0;entryDx=0;entryDy=0;" parent="1" source="Xwk9gsdMMxxRSrjiqG19-72" target="Xwk9gsdMMxxRSrjiqG19-106" edge="1">
          <mxGeometry width="50" height="50" relative="1" as="geometry">
            <mxPoint x="1005" y="417" as="sourcePoint" />
            <mxPoint x="1055" y="367" as="targetPoint" />
          </mxGeometry>
        </mxCell>
        <mxCell id="Xwk9gsdMMxxRSrjiqG19-108" value="Student Files" style="rounded=0;whiteSpace=wrap;html=1;" parent="1" vertex="1">
          <mxGeometry x="520" y="96" width="120" height="60" as="geometry" />
        </mxCell>
        <mxCell id="Xwk9gsdMMxxRSrjiqG19-109" value="student_id" style="ellipse;whiteSpace=wrap;html=1;" parent="1" vertex="1">
          <mxGeometry x="474" y="-4" width="91" height="46" as="geometry" />
        </mxCell>
        <mxCell id="Xwk9gsdMMxxRSrjiqG19-110" value="Corse_Enrollment&lt;div&gt;_id&lt;/div&gt;" style="ellipse;whiteSpace=wrap;html=1;" parent="1" vertex="1">
          <mxGeometry x="571.5" y="-4" width="124" height="46" as="geometry" />
        </mxCell>
        <mxCell id="Xwk9gsdMMxxRSrjiqG19-112" value="" style="endArrow=none;html=1;rounded=0;exitX=0.5;exitY=1;exitDx=0;exitDy=0;entryX=0.5;entryY=0;entryDx=0;entryDy=0;" parent="1" source="Xwk9gsdMMxxRSrjiqG19-109" target="Xwk9gsdMMxxRSrjiqG19-108" edge="1">
          <mxGeometry width="50" height="50" relative="1" as="geometry">
            <mxPoint x="518" y="155" as="sourcePoint" />
            <mxPoint x="568" y="105" as="targetPoint" />
          </mxGeometry>
        </mxCell>
        <mxCell id="Xwk9gsdMMxxRSrjiqG19-113" value="" style="endArrow=none;html=1;rounded=0;entryX=0.5;entryY=1;entryDx=0;entryDy=0;exitX=0.463;exitY=-0.017;exitDx=0;exitDy=0;exitPerimeter=0;" parent="1" source="Xwk9gsdMMxxRSrjiqG19-108" target="Xwk9gsdMMxxRSrjiqG19-110" edge="1">
          <mxGeometry width="50" height="50" relative="1" as="geometry">
            <mxPoint x="518" y="155" as="sourcePoint" />
            <mxPoint x="568" y="105" as="targetPoint" />
          </mxGeometry>
        </mxCell>
        <mxCell id="Xwk9gsdMMxxRSrjiqG19-114" value="Course Enrollment" style="rounded=0;whiteSpace=wrap;html=1;" parent="1" vertex="1">
          <mxGeometry x="853" y="96" width="120" height="60" as="geometry" />
        </mxCell>
        <mxCell id="Xwk9gsdMMxxRSrjiqG19-115" value="student_id" style="ellipse;whiteSpace=wrap;html=1;" parent="1" vertex="1">
          <mxGeometry x="763" y="-4" width="91" height="46" as="geometry" />
        </mxCell>
        <mxCell id="XdnwwctrRoZNahjLVR9k-1" value="Terms" style="rounded=0;whiteSpace=wrap;html=1;" vertex="1" parent="1">
          <mxGeometry x="1154" y="96" width="120" height="60" as="geometry" />
        </mxCell>
        <mxCell id="XdnwwctrRoZNahjLVR9k-2" value="Starting_Date" style="ellipse;whiteSpace=wrap;html=1;" vertex="1" parent="1">
          <mxGeometry x="1116" y="-4" width="91" height="46" as="geometry" />
        </mxCell>
        <mxCell id="XdnwwctrRoZNahjLVR9k-3" value="Finishing_Date" style="ellipse;whiteSpace=wrap;html=1;" vertex="1" parent="1">
          <mxGeometry x="1212" y="-4" width="91" height="46" as="geometry" />
        </mxCell>
        <mxCell id="XdnwwctrRoZNahjLVR9k-6" value="" style="endArrow=none;html=1;rounded=0;entryX=0.5;entryY=0;entryDx=0;entryDy=0;exitX=0.5;exitY=1;exitDx=0;exitDy=0;" edge="1" parent="1" source="XdnwwctrRoZNahjLVR9k-2" target="XdnwwctrRoZNahjLVR9k-1">
          <mxGeometry width="50" height="50" relative="1" as="geometry">
            <mxPoint x="982" y="263" as="sourcePoint" />
            <mxPoint x="1032" y="213" as="targetPoint" />
          </mxGeometry>
        </mxCell>
        <mxCell id="XdnwwctrRoZNahjLVR9k-7" value="" style="endArrow=none;html=1;rounded=0;entryX=0.5;entryY=1;entryDx=0;entryDy=0;exitX=0.5;exitY=0;exitDx=0;exitDy=0;" edge="1" parent="1" source="XdnwwctrRoZNahjLVR9k-1" target="XdnwwctrRoZNahjLVR9k-3">
          <mxGeometry width="50" height="50" relative="1" as="geometry">
            <mxPoint x="982" y="263" as="sourcePoint" />
            <mxPoint x="1032" y="213" as="targetPoint" />
          </mxGeometry>
        </mxCell>
        <mxCell id="XdnwwctrRoZNahjLVR9k-8" value="Term_Course" style="rounded=0;whiteSpace=wrap;html=1;" vertex="1" parent="1">
          <mxGeometry x="1540" y="96" width="120" height="60" as="geometry" />
        </mxCell>
        <mxCell id="XdnwwctrRoZNahjLVR9k-9" value="Term_id" style="ellipse;whiteSpace=wrap;html=1;" vertex="1" parent="1">
          <mxGeometry x="1354" y="-4" width="91" height="46" as="geometry" />
        </mxCell>
        <mxCell id="XdnwwctrRoZNahjLVR9k-10" value="mimi_num_&lt;div&gt;student&lt;/div&gt;" style="ellipse;whiteSpace=wrap;html=1;" vertex="1" parent="1">
          <mxGeometry x="1455" y="-4" width="91" height="46" as="geometry" />
        </mxCell>
        <mxCell id="XdnwwctrRoZNahjLVR9k-11" value="Period_id" style="ellipse;whiteSpace=wrap;html=1;" vertex="1" parent="1">
          <mxGeometry x="1555" y="-4" width="91" height="46" as="geometry" />
        </mxCell>
        <mxCell id="XdnwwctrRoZNahjLVR9k-12" value="Period" style="rounded=0;whiteSpace=wrap;html=1;" vertex="1" parent="1">
          <mxGeometry x="1993" y="96" width="120" height="60" as="geometry" />
        </mxCell>
        <mxCell id="XdnwwctrRoZNahjLVR9k-13" value="Starting_Time" style="ellipse;whiteSpace=wrap;html=1;" vertex="1" parent="1">
          <mxGeometry x="1956" y="-4" width="91" height="46" as="geometry" />
        </mxCell>
        <mxCell id="XdnwwctrRoZNahjLVR9k-14" value="Finishing_Time" style="ellipse;whiteSpace=wrap;html=1;" vertex="1" parent="1">
          <mxGeometry x="2052" y="-4" width="91" height="46" as="geometry" />
        </mxCell>
        <mxCell id="XdnwwctrRoZNahjLVR9k-15" value="Term_Course_id" style="ellipse;whiteSpace=wrap;html=1;" vertex="1" parent="1">
          <mxGeometry x="869" y="-4" width="91" height="46" as="geometry" />
        </mxCell>
        <mxCell id="XdnwwctrRoZNahjLVR9k-16" value="Price" style="ellipse;whiteSpace=wrap;html=1;" vertex="1" parent="1">
          <mxGeometry x="1658" y="-4" width="91" height="46" as="geometry" />
        </mxCell>
        <mxCell id="XdnwwctrRoZNahjLVR9k-17" value="" style="endArrow=none;html=1;rounded=0;entryX=0.5;entryY=0;entryDx=0;entryDy=0;exitX=0.5;exitY=1;exitDx=0;exitDy=0;" edge="1" parent="1" source="XdnwwctrRoZNahjLVR9k-9" target="XdnwwctrRoZNahjLVR9k-8">
          <mxGeometry width="50" height="50" relative="1" as="geometry">
            <mxPoint x="1410" y="299" as="sourcePoint" />
            <mxPoint x="1460" y="249" as="targetPoint" />
          </mxGeometry>
        </mxCell>
        <mxCell id="XdnwwctrRoZNahjLVR9k-18" value="" style="endArrow=none;html=1;rounded=0;entryX=0.5;entryY=0;entryDx=0;entryDy=0;exitX=0.5;exitY=1;exitDx=0;exitDy=0;" edge="1" parent="1" source="XdnwwctrRoZNahjLVR9k-10" target="XdnwwctrRoZNahjLVR9k-8">
          <mxGeometry width="50" height="50" relative="1" as="geometry">
            <mxPoint x="1414" y="310" as="sourcePoint" />
            <mxPoint x="1464" y="260" as="targetPoint" />
          </mxGeometry>
        </mxCell>
        <mxCell id="XdnwwctrRoZNahjLVR9k-19" value="" style="endArrow=none;html=1;rounded=0;entryX=0.5;entryY=0;entryDx=0;entryDy=0;exitX=0.5;exitY=1;exitDx=0;exitDy=0;" edge="1" parent="1" source="XdnwwctrRoZNahjLVR9k-11" target="XdnwwctrRoZNahjLVR9k-8">
          <mxGeometry width="50" height="50" relative="1" as="geometry">
            <mxPoint x="1424" y="320" as="sourcePoint" />
            <mxPoint x="1474" y="270" as="targetPoint" />
          </mxGeometry>
        </mxCell>
        <mxCell id="XdnwwctrRoZNahjLVR9k-20" value="" style="endArrow=none;html=1;rounded=0;entryX=0.5;entryY=1;entryDx=0;entryDy=0;exitX=0.5;exitY=0;exitDx=0;exitDy=0;" edge="1" parent="1" source="XdnwwctrRoZNahjLVR9k-8" target="XdnwwctrRoZNahjLVR9k-16">
          <mxGeometry width="50" height="50" relative="1" as="geometry">
            <mxPoint x="1434" y="330" as="sourcePoint" />
            <mxPoint x="1484" y="280" as="targetPoint" />
          </mxGeometry>
        </mxCell>
        <mxCell id="XdnwwctrRoZNahjLVR9k-21" value="" style="endArrow=none;html=1;rounded=0;entryX=0.5;entryY=1;entryDx=0;entryDy=0;exitX=0.5;exitY=0;exitDx=0;exitDy=0;" edge="1" parent="1" source="XdnwwctrRoZNahjLVR9k-12" target="XdnwwctrRoZNahjLVR9k-13">
          <mxGeometry width="50" height="50" relative="1" as="geometry">
            <mxPoint x="1576" y="340" as="sourcePoint" />
            <mxPoint x="1626" y="290" as="targetPoint" />
          </mxGeometry>
        </mxCell>
        <mxCell id="XdnwwctrRoZNahjLVR9k-22" value="" style="endArrow=none;html=1;rounded=0;entryX=0.5;entryY=1;entryDx=0;entryDy=0;exitX=0.5;exitY=0;exitDx=0;exitDy=0;" edge="1" parent="1" source="XdnwwctrRoZNahjLVR9k-12" target="XdnwwctrRoZNahjLVR9k-14">
          <mxGeometry width="50" height="50" relative="1" as="geometry">
            <mxPoint x="1586" y="350" as="sourcePoint" />
            <mxPoint x="1636" y="300" as="targetPoint" />
          </mxGeometry>
        </mxCell>
        <mxCell id="XdnwwctrRoZNahjLVR9k-23" value="Halls" style="rounded=0;whiteSpace=wrap;html=1;" vertex="1" parent="1">
          <mxGeometry x="1611" y="369" width="120" height="60" as="geometry" />
        </mxCell>
        <mxCell id="XdnwwctrRoZNahjLVR9k-24" value="Floor" style="ellipse;whiteSpace=wrap;html=1;" vertex="1" parent="1">
          <mxGeometry x="1679" y="532" width="91" height="46" as="geometry" />
        </mxCell>
        <mxCell id="XdnwwctrRoZNahjLVR9k-25" value="Number" style="ellipse;whiteSpace=wrap;html=1;" vertex="1" parent="1">
          <mxGeometry x="1578" y="532" width="91" height="46" as="geometry" />
        </mxCell>
        <mxCell id="XdnwwctrRoZNahjLVR9k-26" value="" style="endArrow=none;html=1;rounded=0;exitX=0.5;exitY=0;exitDx=0;exitDy=0;entryX=0.5;entryY=1;entryDx=0;entryDy=0;" edge="1" parent="1" source="XdnwwctrRoZNahjLVR9k-24" target="XdnwwctrRoZNahjLVR9k-23">
          <mxGeometry width="50" height="50" relative="1" as="geometry">
            <mxPoint x="1539" y="516" as="sourcePoint" />
            <mxPoint x="1589" y="466" as="targetPoint" />
          </mxGeometry>
        </mxCell>
        <mxCell id="XdnwwctrRoZNahjLVR9k-27" value="" style="endArrow=none;html=1;rounded=0;entryX=0.5;entryY=1;entryDx=0;entryDy=0;exitX=0.5;exitY=0;exitDx=0;exitDy=0;" edge="1" parent="1" source="XdnwwctrRoZNahjLVR9k-25" target="XdnwwctrRoZNahjLVR9k-23">
          <mxGeometry width="50" height="50" relative="1" as="geometry">
            <mxPoint x="1559" y="536" as="sourcePoint" />
            <mxPoint x="1609" y="486" as="targetPoint" />
          </mxGeometry>
        </mxCell>
        <mxCell id="XdnwwctrRoZNahjLVR9k-28" value="Hall_id" style="ellipse;whiteSpace=wrap;html=1;" vertex="1" parent="1">
          <mxGeometry x="1755" y="-4" width="91" height="46" as="geometry" />
        </mxCell>
        <mxCell id="XdnwwctrRoZNahjLVR9k-29" value="" style="endArrow=none;html=1;rounded=0;entryX=0.5;entryY=0;entryDx=0;entryDy=0;exitX=0.5;exitY=1;exitDx=0;exitDy=0;" edge="1" parent="1" source="XdnwwctrRoZNahjLVR9k-28" target="XdnwwctrRoZNahjLVR9k-8">
          <mxGeometry width="50" height="50" relative="1" as="geometry">
            <mxPoint x="950" y="326" as="sourcePoint" />
            <mxPoint x="1000" y="276" as="targetPoint" />
          </mxGeometry>
        </mxCell>
        <mxCell id="XdnwwctrRoZNahjLVR9k-30" value="" style="endArrow=none;html=1;rounded=0;entryX=0.5;entryY=0;entryDx=0;entryDy=0;exitX=0.5;exitY=1;exitDx=0;exitDy=0;" edge="1" parent="1" source="Xwk9gsdMMxxRSrjiqG19-115" target="Xwk9gsdMMxxRSrjiqG19-114">
          <mxGeometry width="50" height="50" relative="1" as="geometry">
            <mxPoint x="1279" y="326" as="sourcePoint" />
            <mxPoint x="1329" y="276" as="targetPoint" />
          </mxGeometry>
        </mxCell>
        <mxCell id="XdnwwctrRoZNahjLVR9k-31" value="" style="endArrow=none;html=1;rounded=0;entryX=0.5;entryY=0;entryDx=0;entryDy=0;exitX=0.5;exitY=1;exitDx=0;exitDy=0;" edge="1" parent="1" source="XdnwwctrRoZNahjLVR9k-15" target="Xwk9gsdMMxxRSrjiqG19-114">
          <mxGeometry width="50" height="50" relative="1" as="geometry">
            <mxPoint x="1279" y="326" as="sourcePoint" />
            <mxPoint x="1329" y="276" as="targetPoint" />
          </mxGeometry>
        </mxCell>
        <mxCell id="XdnwwctrRoZNahjLVR9k-32" value="Grade" style="rounded=0;whiteSpace=wrap;html=1;" vertex="1" parent="1">
          <mxGeometry x="2466.5" y="96" width="120" height="60" as="geometry" />
        </mxCell>
        <mxCell id="XdnwwctrRoZNahjLVR9k-33" value="attendance" style="ellipse;whiteSpace=wrap;html=1;" vertex="1" parent="1">
          <mxGeometry x="2282" y="-4" width="91" height="46" as="geometry" />
        </mxCell>
        <mxCell id="XdnwwctrRoZNahjLVR9k-34" value="Story" style="ellipse;whiteSpace=wrap;html=1;" vertex="1" parent="1">
          <mxGeometry x="2378" y="-4" width="91" height="46" as="geometry" />
        </mxCell>
        <mxCell id="XdnwwctrRoZNahjLVR9k-35" value="" style="endArrow=none;html=1;rounded=0;entryX=0.5;entryY=1;entryDx=0;entryDy=0;exitX=0.5;exitY=0;exitDx=0;exitDy=0;" edge="1" parent="1" target="XdnwwctrRoZNahjLVR9k-33" source="XdnwwctrRoZNahjLVR9k-32">
          <mxGeometry width="50" height="50" relative="1" as="geometry">
            <mxPoint x="2379" y="96" as="sourcePoint" />
            <mxPoint x="1952" y="290" as="targetPoint" />
          </mxGeometry>
        </mxCell>
        <mxCell id="XdnwwctrRoZNahjLVR9k-36" value="" style="endArrow=none;html=1;rounded=0;entryX=0.5;entryY=1;entryDx=0;entryDy=0;exitX=0.5;exitY=0;exitDx=0;exitDy=0;" edge="1" parent="1" target="XdnwwctrRoZNahjLVR9k-34" source="XdnwwctrRoZNahjLVR9k-32">
          <mxGeometry width="50" height="50" relative="1" as="geometry">
            <mxPoint x="2379" y="96" as="sourcePoint" />
            <mxPoint x="1962" y="300" as="targetPoint" />
          </mxGeometry>
        </mxCell>
        <mxCell id="XdnwwctrRoZNahjLVR9k-37" value="Quiz 1" style="ellipse;whiteSpace=wrap;html=1;" vertex="1" parent="1">
          <mxGeometry x="2481" y="-4" width="91" height="46" as="geometry" />
        </mxCell>
        <mxCell id="XdnwwctrRoZNahjLVR9k-38" value="Grade_id" style="ellipse;whiteSpace=wrap;html=1;" vertex="1" parent="1">
          <mxGeometry x="969" y="-4" width="91" height="46" as="geometry" />
        </mxCell>
        <mxCell id="XdnwwctrRoZNahjLVR9k-39" value="" style="endArrow=none;html=1;rounded=0;entryX=0.5;entryY=1;entryDx=0;entryDy=0;exitX=0.5;exitY=0;exitDx=0;exitDy=0;" edge="1" parent="1" source="Xwk9gsdMMxxRSrjiqG19-114" target="XdnwwctrRoZNahjLVR9k-38">
          <mxGeometry width="50" height="50" relative="1" as="geometry">
            <mxPoint x="917" y="91" as="sourcePoint" />
            <mxPoint x="967" y="41" as="targetPoint" />
          </mxGeometry>
        </mxCell>
        <mxCell id="XdnwwctrRoZNahjLVR9k-40" value="" style="endArrow=none;html=1;rounded=0;entryX=0.5;entryY=1;entryDx=0;entryDy=0;exitX=0.5;exitY=0;exitDx=0;exitDy=0;" edge="1" parent="1" source="XdnwwctrRoZNahjLVR9k-32" target="XdnwwctrRoZNahjLVR9k-37">
          <mxGeometry width="50" height="50" relative="1" as="geometry">
            <mxPoint x="2071" y="203" as="sourcePoint" />
            <mxPoint x="2121" y="153" as="targetPoint" />
          </mxGeometry>
        </mxCell>
        <mxCell id="XdnwwctrRoZNahjLVR9k-41" value="Division_Grade" style="rounded=0;whiteSpace=wrap;html=1;" vertex="1" parent="1">
          <mxGeometry x="1959" y="369" width="120" height="60" as="geometry" />
        </mxCell>
        <mxCell id="XdnwwctrRoZNahjLVR9k-42" value="Name" style="ellipse;whiteSpace=wrap;html=1;" vertex="1" parent="1">
          <mxGeometry x="1926" y="532" width="91" height="46" as="geometry" />
        </mxCell>
        <mxCell id="XdnwwctrRoZNahjLVR9k-43" value="Grade" style="ellipse;whiteSpace=wrap;html=1;" vertex="1" parent="1">
          <mxGeometry x="2022" y="532" width="91" height="46" as="geometry" />
        </mxCell>
        <mxCell id="XdnwwctrRoZNahjLVR9k-44" value="" style="endArrow=none;html=1;rounded=0;entryX=0.5;entryY=0;entryDx=0;entryDy=0;exitX=0.5;exitY=1;exitDx=0;exitDy=0;" edge="1" parent="1" source="XdnwwctrRoZNahjLVR9k-41" target="XdnwwctrRoZNahjLVR9k-42">
          <mxGeometry width="50" height="50" relative="1" as="geometry">
            <mxPoint x="2038" y="317" as="sourcePoint" />
            <mxPoint x="2088" y="267" as="targetPoint" />
          </mxGeometry>
        </mxCell>
        <mxCell id="XdnwwctrRoZNahjLVR9k-45" value="" style="endArrow=none;html=1;rounded=0;exitX=0.5;exitY=1;exitDx=0;exitDy=0;entryX=0.5;entryY=0;entryDx=0;entryDy=0;" edge="1" parent="1" source="XdnwwctrRoZNahjLVR9k-41" target="XdnwwctrRoZNahjLVR9k-43">
          <mxGeometry width="50" height="50" relative="1" as="geometry">
            <mxPoint x="2038" y="317" as="sourcePoint" />
            <mxPoint x="2088" y="267" as="targetPoint" />
          </mxGeometry>
        </mxCell>
        <mxCell id="XdnwwctrRoZNahjLVR9k-46" value="Quiz 2" style="ellipse;whiteSpace=wrap;html=1;" vertex="1" parent="1">
          <mxGeometry x="2576" y="-4" width="91" height="46" as="geometry" />
        </mxCell>
        <mxCell id="XdnwwctrRoZNahjLVR9k-47" value="Quiz 1" style="ellipse;whiteSpace=wrap;html=1;" vertex="1" parent="1">
          <mxGeometry x="2671" y="-4" width="91" height="46" as="geometry" />
        </mxCell>
        <mxCell id="XdnwwctrRoZNahjLVR9k-48" value="" style="endArrow=none;html=1;rounded=0;entryX=0.5;entryY=1;entryDx=0;entryDy=0;exitX=0.5;exitY=0;exitDx=0;exitDy=0;" edge="1" parent="1" source="XdnwwctrRoZNahjLVR9k-32" target="XdnwwctrRoZNahjLVR9k-47">
          <mxGeometry width="50" height="50" relative="1" as="geometry">
            <mxPoint x="2038" y="317" as="sourcePoint" />
            <mxPoint x="2088" y="267" as="targetPoint" />
          </mxGeometry>
        </mxCell>
        <mxCell id="XdnwwctrRoZNahjLVR9k-49" value="" style="endArrow=none;html=1;rounded=0;entryX=0.5;entryY=0;entryDx=0;entryDy=0;exitX=0.5;exitY=1;exitDx=0;exitDy=0;" edge="1" parent="1" source="XdnwwctrRoZNahjLVR9k-46" target="XdnwwctrRoZNahjLVR9k-32">
          <mxGeometry width="50" height="50" relative="1" as="geometry">
            <mxPoint x="2038" y="317" as="sourcePoint" />
            <mxPoint x="2088" y="267" as="targetPoint" />
          </mxGeometry>
        </mxCell>
        <mxCell id="XdnwwctrRoZNahjLVR9k-51" value="Transaction" style="rounded=0;whiteSpace=wrap;html=1;" vertex="1" parent="1">
          <mxGeometry x="2456" y="369" width="120" height="60" as="geometry" />
        </mxCell>
        <mxCell id="XdnwwctrRoZNahjLVR9k-53" value="Date&amp;amp;Time" style="ellipse;whiteSpace=wrap;html=1;" vertex="1" parent="1">
          <mxGeometry x="2228.5" y="532" width="91" height="46" as="geometry" />
        </mxCell>
        <mxCell id="XdnwwctrRoZNahjLVR9k-54" value="Amount" style="ellipse;whiteSpace=wrap;html=1;" vertex="1" parent="1">
          <mxGeometry x="2322" y="532" width="91" height="46" as="geometry" />
        </mxCell>
        <mxCell id="XdnwwctrRoZNahjLVR9k-55" value="For" style="ellipse;whiteSpace=wrap;html=1;" vertex="1" parent="1">
          <mxGeometry x="2416" y="532" width="91" height="46" as="geometry" />
        </mxCell>
        <mxCell id="XdnwwctrRoZNahjLVR9k-56" value="From" style="ellipse;whiteSpace=wrap;html=1;" vertex="1" parent="1">
          <mxGeometry x="2510" y="532" width="91" height="46" as="geometry" />
        </mxCell>
        <mxCell id="XdnwwctrRoZNahjLVR9k-57" value="Done By" style="ellipse;whiteSpace=wrap;html=1;" vertex="1" parent="1">
          <mxGeometry x="2604" y="532" width="91" height="46" as="geometry" />
        </mxCell>
        <mxCell id="XdnwwctrRoZNahjLVR9k-58" value="" style="endArrow=none;html=1;rounded=0;exitX=0.5;exitY=0;exitDx=0;exitDy=0;entryX=0.5;entryY=1;entryDx=0;entryDy=0;" edge="1" parent="1" source="XdnwwctrRoZNahjLVR9k-53" target="XdnwwctrRoZNahjLVR9k-51">
          <mxGeometry width="50" height="50" relative="1" as="geometry">
            <mxPoint x="2277" y="317" as="sourcePoint" />
            <mxPoint x="2327" y="267" as="targetPoint" />
          </mxGeometry>
        </mxCell>
        <mxCell id="XdnwwctrRoZNahjLVR9k-59" value="" style="endArrow=none;html=1;rounded=0;entryX=0.5;entryY=1;entryDx=0;entryDy=0;exitX=0.5;exitY=0;exitDx=0;exitDy=0;" edge="1" parent="1" source="XdnwwctrRoZNahjLVR9k-57" target="XdnwwctrRoZNahjLVR9k-51">
          <mxGeometry width="50" height="50" relative="1" as="geometry">
            <mxPoint x="2277" y="317" as="sourcePoint" />
            <mxPoint x="2327" y="267" as="targetPoint" />
          </mxGeometry>
        </mxCell>
        <mxCell id="XdnwwctrRoZNahjLVR9k-60" value="" style="endArrow=none;html=1;rounded=0;entryX=0.5;entryY=1;entryDx=0;entryDy=0;exitX=0.5;exitY=0;exitDx=0;exitDy=0;" edge="1" parent="1" source="XdnwwctrRoZNahjLVR9k-56" target="XdnwwctrRoZNahjLVR9k-51">
          <mxGeometry width="50" height="50" relative="1" as="geometry">
            <mxPoint x="2277" y="317" as="sourcePoint" />
            <mxPoint x="2327" y="267" as="targetPoint" />
          </mxGeometry>
        </mxCell>
        <mxCell id="XdnwwctrRoZNahjLVR9k-61" value="" style="endArrow=none;html=1;rounded=0;exitX=0.5;exitY=1;exitDx=0;exitDy=0;entryX=0.5;entryY=0;entryDx=0;entryDy=0;" edge="1" parent="1" source="XdnwwctrRoZNahjLVR9k-51" target="XdnwwctrRoZNahjLVR9k-55">
          <mxGeometry width="50" height="50" relative="1" as="geometry">
            <mxPoint x="2277" y="317" as="sourcePoint" />
            <mxPoint x="2327" y="267" as="targetPoint" />
          </mxGeometry>
        </mxCell>
        <mxCell id="XdnwwctrRoZNahjLVR9k-62" value="" style="endArrow=none;html=1;rounded=0;exitX=0.5;exitY=0;exitDx=0;exitDy=0;entryX=0.5;entryY=1;entryDx=0;entryDy=0;" edge="1" parent="1" source="XdnwwctrRoZNahjLVR9k-54" target="XdnwwctrRoZNahjLVR9k-51">
          <mxGeometry width="50" height="50" relative="1" as="geometry">
            <mxPoint x="2277" y="317" as="sourcePoint" />
            <mxPoint x="2327" y="267" as="targetPoint" />
          </mxGeometry>
        </mxCell>
        <mxCell id="XdnwwctrRoZNahjLVR9k-63" value="Financial_Fund" style="rounded=0;whiteSpace=wrap;html=1;" vertex="1" parent="1">
          <mxGeometry x="2758" y="237" width="120" height="60" as="geometry" />
        </mxCell>
        <mxCell id="XdnwwctrRoZNahjLVR9k-64" value="Amount" style="ellipse;whiteSpace=wrap;html=1;" vertex="1" parent="1">
          <mxGeometry x="2978" y="246" width="91" height="46" as="geometry" />
        </mxCell>
        <mxCell id="XdnwwctrRoZNahjLVR9k-65" value="" style="endArrow=none;html=1;rounded=0;exitX=0;exitY=0.5;exitDx=0;exitDy=0;entryX=1;entryY=0.5;entryDx=0;entryDy=0;" edge="1" parent="1" source="XdnwwctrRoZNahjLVR9k-64" target="XdnwwctrRoZNahjLVR9k-63">
          <mxGeometry width="50" height="50" relative="1" as="geometry">
            <mxPoint x="2933" y="31" as="sourcePoint" />
            <mxPoint x="3118" y="143" as="targetPoint" />
          </mxGeometry>
        </mxCell>
        <mxCell id="XdnwwctrRoZNahjLVR9k-66" value="Status" style="ellipse;whiteSpace=wrap;html=1;" vertex="1" parent="1">
          <mxGeometry x="-585" y="532" width="91" height="46" as="geometry" />
        </mxCell>
        <mxCell id="XdnwwctrRoZNahjLVR9k-67" value="" style="endArrow=none;html=1;rounded=0;exitX=0.5;exitY=1;exitDx=0;exitDy=0;entryX=0.5;entryY=0;entryDx=0;entryDy=0;" edge="1" parent="1" source="Xwk9gsdMMxxRSrjiqG19-43" target="XdnwwctrRoZNahjLVR9k-66">
          <mxGeometry width="50" height="50" relative="1" as="geometry">
            <mxPoint x="42" y="411" as="sourcePoint" />
            <mxPoint x="92" y="361" as="targetPoint" />
          </mxGeometry>
        </mxCell>
        <mxCell id="XdnwwctrRoZNahjLVR9k-68" value="Financial_Fund&lt;div&gt;_id&lt;/div&gt;" style="ellipse;whiteSpace=wrap;html=1;" vertex="1" parent="1">
          <mxGeometry x="2700" y="532" width="91" height="46" as="geometry" />
        </mxCell>
        <mxCell id="XdnwwctrRoZNahjLVR9k-69" value="" style="endArrow=none;html=1;rounded=0;exitX=0.5;exitY=1;exitDx=0;exitDy=0;entryX=0.5;entryY=0;entryDx=0;entryDy=0;" edge="1" parent="1" source="XdnwwctrRoZNahjLVR9k-51" target="XdnwwctrRoZNahjLVR9k-68">
          <mxGeometry width="50" height="50" relative="1" as="geometry">
            <mxPoint x="2686" y="385" as="sourcePoint" />
            <mxPoint x="2736" y="335" as="targetPoint" />
          </mxGeometry>
        </mxCell>
      </root>
    </mxGraphModel>
  </diagram>
</mxfile>
